<!DOCTYPE svg PUBLIC "-//W3C//DTD SVG 1.1//EN" "http://www.w3.org/Graphics/SVG/1.1/DTD/svg11.dtd">
<!-- Uploaded to: SVG Repo, www.svgrepo.com, Transformed by: SVG Repo Mixer Tools -->
<svg width="800px" height="800px" viewBox="0 -4 40 40" xmlns="http://www.w3.org/2000/svg" fill="#00D4FF">
<g id="SVGRepo_bgCarrier" stroke-width="0"/>
<g id="SVGRepo_tracerCarrier" stroke-linecap="round" stroke-linejoin="round"/>
<g id="SVGRepo_iconCarrier"> <g id="Group_60" data-name="Group 60" transform="translate(-140 -214)"> <path id="Imported-Layers_2_" d="M149,239v5a1,1,0,0,0,1,1h14v-6Zm15,0v6h14a1,1,0,0,0,1-1v-4a1,1,0,0,0-1-1Zm0-12H150a.923.923,0,0,0-1,.9V233h15v-6Zm0,0v6h14a1,1,0,0,0,1-1v-4a1,1,0,0,0-1-1Zm-22,6a1,1,0,0,0-1,1v4a1,1,0,0,0,1,1h14v-6Zm14,6h15v-6H156Zm14-18H157a.923.923,0,0,0-1,.9V227h15v-5.1a.923.923,0,0,0-1-.9Zm-28,0a1,1,0,0,0-1,1v4a1,1,0,0,0,1,1h14v-5.1a.923.923,0,0,0-1-.9Zm8-6a1,1,0,0,0-1,1v5h15v-5a1,1,0,0,0-1-1Z" fill="none" stroke="#00D4FF" stroke-linecap="square" stroke-width="2"/> </g> </g>
</svg>