<!DOCTYPE svg PUBLIC "-//W3C//DTD SVG 1.1//EN" "http://www.w3.org/Graphics/SVG/1.1/DTD/svg11.dtd">
<!-- Uploaded to: SVG Repo, www.svgrepo.com, Transformed by: SVG Repo Mixer Tools -->
<svg fill="#00D4FF" width="800px" height="800px" viewBox="0 0 32 32" enable-background="new 0 0 32 32" id="Layer_3" version="1.1" xml:space="preserve" xmlns="http://www.w3.org/2000/svg" xmlns:xlink="http://www.w3.org/1999/xlink">
<g id="SVGRepo_bgCarrier" stroke-width="0"/>
<g id="SVGRepo_tracerCarrier" stroke-linecap="round" stroke-linejoin="round"/>
<g id="SVGRepo_iconCarrier"> <g> <path d="M29,24h-3.195l-3.063-14H25c0.553,0,1-0.447,1-1V3c0-0.553-0.447-1-1-1h-3c-0.553,0-1,0.447-1,1v1h-2.5V3 c0-0.553-0.447-1-1-1h-3c-0.553,0-1,0.447-1,1v1H11V3c0-0.553-0.447-1-1-1H7C6.447,2,6,2.447,6,3v6c0,0.553,0.447,1,1,1h2.258 L6.195,24H3c-0.553,0-1,0.447-1,1v4c0,0.553,0.447,1,1,1h26c0.553,0,1-0.447,1-1v-4C30,24.447,29.553,24,29,24z M8,4h1v1 c0,0.553,0.447,1,1,1h4.5c0.553,0,1-0.447,1-1V4h1v1c0,0.553,0.447,1,1,1H22c0.553,0,1-0.447,1-1V4h1v4h-2.5h-11H8V4z M20.695,10 l0.219,1h-9.828l0.219-1H20.695z M10.648,13h10.703l2.406,11H8.242L10.648,13z M28,28H4v-2h3h18h3V28z"/> </g> </g>
</svg>