<!DOCTYPE svg PUBLIC "-//W3C//DTD SVG 1.1//EN" "http://www.w3.org/Graphics/SVG/1.1/DTD/svg11.dtd">
<!-- Uploaded to: SVG Repo, www.svgrepo.com, Transformed by: SVG Repo Mixer Tools -->
<svg width="800px" height="800px" viewBox="0 0 24 24" id="Layer_1" data-name="Layer 1" xmlns="http://www.w3.org/2000/svg" fill="#000000">
<g id="SVGRepo_bgCarrier" stroke-width="0"/>
<g id="SVGRepo_tracerCarrier" stroke-linecap="round" stroke-linejoin="round"/>
<g id="SVGRepo_iconCarrier">
<defs>
<style>.cls-1{fill:none;stroke:#00D4FF;stroke-miterlimit:10;stroke-width:1.92px;}</style>
</defs>
<path class="cls-1" d="M13.92,14.88l2.87-1V11a1.92,1.92,0,0,0-1.91-1.92H9.12A1.92,1.92,0,0,0,7.21,11v2.88l2.87,1"/>
<circle class="cls-1" cx="12" cy="14.88" r="1.92"/>
<line class="cls-1" x1="7.21" y1="11.04" x2="0.5" y2="11.04"/>
<line class="cls-1" x1="23.5" y1="11.04" x2="16.79" y2="11.04"/>
<line class="cls-1" x1="0.5" y1="6.25" x2="6.25" y2="6.25"/>
<line class="cls-1" x1="17.75" y1="6.25" x2="23.5" y2="6.25"/>
<line class="cls-1" x1="3.38" y1="6.25" x2="3.38" y2="11.04"/>
<line class="cls-1" x1="20.63" y1="6.25" x2="20.63" y2="11.04"/>
<polyline class="cls-1" points="3.38 17.75 5.29 17.75 5.29 14.88 7.21 13.92"/>
<polyline class="cls-1" points="20.63 17.75 18.71 17.75 18.71 14.88 16.79 13.92"/>
</g>
</svg>